<svg xmlns="http://www.w3.org/2000/svg" width="128" height="128" viewBox="0 0 128 128">
  <defs>
    <linearGradient id="g" x1="0" y1="0" x2="1" y2="1">
      <stop offset="0" stop-color="#63a8ff"/>
      <stop offset="1" stop-color="#2d6bff"/>
    </linearGradient>
    <filter id="s" x="-20%" y="-20%" width="140%" height="140%">
      <feDropShadow dx="0" dy="10" stdDeviation="10" flood-color="#2d6bff" flood-opacity="0.22"/>
    </filter>
  </defs>
  <rect x="10" y="10" width="108" height="108" rx="26" fill="url(#g)" filter="url(#s)"/>
  <path d="M64 30c2.8 0 5 2.2 5 5v18h18c2.8 0 5 2.2 5 5s-2.2 5-5 5H69v18c0 2.8-2.2 5-5 5s-5-2.2-5-5V68H41c-2.8 0-5-2.2-5-5s2.2-5 5-5h18V35c0-2.8 2.2-5 5-5z" fill="#fff" opacity="0.95"/>
</svg>
